<?xml version="1.0" encoding="UTF-8" standalone="no"?>
<svg
   xmlns:dc="http://purl.org/dc/elements/1.1/"
   xmlns:cc="http://creativecommons.org/ns#"
   xmlns:rdf="http://www.w3.org/1999/02/22-rdf-syntax-ns#"
   xmlns:svg="http://www.w3.org/2000/svg"
   xmlns="http://www.w3.org/2000/svg"
   xmlns:sodipodi="http://sodipodi.sourceforge.net/DTD/sodipodi-0.dtd"
   xmlns:inkscape="http://www.inkscape.org/namespaces/inkscape"
   width="155.57266mm"
   height="161.2527mm"
   viewBox="0 0 155.57266 161.2527"
   version="1.1"
   id="svg8"
   inkscape:version="1.0.1 (3bc2e813f5, 2020-09-07)"
   sodipodi:docname="logo2.svg"
   inkscape:export-filename="C:\Users\Luis\Desktop\bitmap.png"
   inkscape:export-xdpi="96"
   inkscape:export-ydpi="96">
  <defs
     id="defs2">
    <filter
       inkscape:collect="always"
       style="color-interpolation-filters:sRGB"
       id="filter5462"
       x="-2.9999993e-05"
       width="1.00006"
       y="-3.0000008e-05"
       height="1.00006">
      <feGaussianBlur
         inkscape:collect="always"
         stdDeviation="0.00063042811"
         id="feGaussianBlur5464" />
    </filter>
  </defs>
  <sodipodi:namedview
     id="base"
     pagecolor="#ffffff"
     bordercolor="#666666"
     borderopacity="1.0"
     inkscape:pageopacity="0.0"
     inkscape:pageshadow="2"
     inkscape:zoom="0.49497475"
     inkscape:cx="429.92288"
     inkscape:cy="469.01504"
     inkscape:document-units="mm"
     inkscape:current-layer="layer1"
     inkscape:document-rotation="0"
     showgrid="false"
     inkscape:snap-object-midpoints="true"
     inkscape:window-width="1366"
     inkscape:window-height="745"
     inkscape:window-x="-8"
     inkscape:window-y="-8"
     inkscape:window-maximized="1"
     showguides="true"
     inkscape:guide-bbox="true"
     fit-margin-top="0"
     fit-margin-left="0"
     fit-margin-right="0"
     fit-margin-bottom="0"
     inkscape:pagecheckerboard="true" />
  <metadata
     id="metadata5">
    <rdf:RDF>
      <cc:Work
         rdf:about="">
        <dc:format>image/svg+xml</dc:format>
        <dc:type
           rdf:resource="http://purl.org/dc/dcmitype/StillImage" />
        <dc:title></dc:title>
      </cc:Work>
    </rdf:RDF>
  </metadata>
  <g
     inkscape:label="Capa 1"
     inkscape:groupmode="layer"
     id="layer1"
     transform="translate(-35.046803,-55.407155)">
    <path
       id="circle5226"
       style="fill:#fa7d09;fill-opacity:1;stroke:none;stroke-width:3.0682;stroke-miterlimit:4;stroke-dasharray:none;stroke-opacity:1"
       d="m 97.39987,101.27499 a 62.489402,62.489402 0 0 0 -13.73811,1.56336 l -3.54692,15.2342 a 48.904746,48.904746 0 0 0 -12.0697,6.67781 L 53.256413,119.6695 a 62.489402,62.489402 0 0 0 -8.615201,10.82995 l 8.266391,13.2758 a 48.904746,48.904746 0 0 0 -3.736057,12.72528 48.904746,48.904746 0 0 0 -0.07566,0.52951 L 35.046803,163.897 a 62.489402,62.489402 0 0 0 1.563343,13.74231 l 15.229997,3.54694 a 48.904746,48.904746 0 0 0 6.682035,12.06548 l -5.080867,14.79292 a 62.489402,62.489402 0 0 0 10.825739,8.61521 l 15.12914,-18.84418 a 38.580409,38.580409 0 0 1 -20.01249,-39.78123 38.580409,38.580409 0 0 1 43.80727,-32.43095 38.580409,38.580409 0 0 1 0.0757,0.0136 38.580409,38.580409 0 0 1 23.59725,13.08672 l 14.26763,-17.76835 0.4959,-1.44566 a 62.489402,62.489402 0 0 0 -10.82155,-8.6194 l -13.27582,8.2664 a 48.904746,48.904746 0 0 0 -12.72949,-3.73187 48.904746,48.904746 0 0 0 -0.52532,-0.0755 z m 0.0714,24.45038 A 38.03703,38.03703 0 0 0 59.917401,158.1143 38.03703,38.03703 0 0 0 79.74497,197.387 l 6.6274,-8.25797 a 27.712693,27.712693 0 0 1 -16.24281,-29.48079 27.712693,27.712693 0 0 1 31.49802,-23.29047 27.712693,27.712693 0 0 1 0.0252,0.005 27.712693,27.712693 0 0 1 18.239,11.02746 l 6.6274,-8.2538 a 38.03703,38.03703 0 0 0 -23.33667,-12.98584 38.03703,38.03703 0 0 0 -0.39925,-0.0587 38.03703,38.03703 0 0 0 -5.31201,-0.36562 z" />
    <g
       id="g5140"
       transform="rotate(-15,24.27042,98.876019)" />
    <path
       id="circle5226-5"
       style="fill:#676767;fill-opacity:1;stroke:none;stroke-width:1.23819;stroke-miterlimit:4;stroke-dasharray:none;stroke-opacity:1;filter:url(#filter5462)"
       d="m 165.3497,83.575065 a 25.218069,25.218069 0 0 0 -5.54315,0.63035 l -1.43306,6.1483 a 19.735879,19.735879 0 0 0 -4.87075,2.69381 l -5.96758,-2.05081 a 25.218069,25.218069 0 0 0 -3.47551,4.37064 l 3.33262,5.358215 a 19.735879,19.735879 0 0 0 -1.50452,5.13551 19.735879,19.735879 0 0 0 -0.0333,0.21419 l -5.66924,2.76947 a 25.218069,25.218069 0 0 0 0.63036,5.54734 l 6.1483,1.42889 a 19.735879,19.735879 0 0 0 2.69385,4.87073 l -2.04666,5.9718 a 25.218069,25.218069 0 0 0 4.36644,3.47548 l 5.35825,-3.3326 a 19.735879,19.735879 0 0 0 5.13548,1.5045 19.735879,19.735879 0 0 0 0.21419,0.0292 l 2.76947,5.66922 a 25.218069,25.218069 0 0 0 5.54737,-0.62619 l 1.43305,-6.14832 a 19.735879,19.735879 0 0 0 4.86654,-2.698 l 5.9718,2.05083 a 25.218069,25.218069 0 0 0 3.4755,-4.37063 l -3.33261,-5.35406 a 19.735879,19.735879 0 0 0 1.50452,-5.13968 19.735879,19.735879 0 0 0 0.0292,-0.21033 l 5.66921,-2.77366 a 25.218069,25.218069 0 0 0 -0.62611,-5.5471 l -6.1483,-1.42886 a 19.735879,19.735879 0 0 0 -2.69805,-4.870725 l 2.05085,-5.96761 a 25.218069,25.218069 0 0 0 -4.36646,-3.47969 l -5.35822,3.33681 a 19.735879,19.735879 0 0 0 -5.1397,-1.50453 19.735879,19.735879 0 0 0 -0.20989,-0.0333 z m -0.16795,13.53636 a 11.682801,11.682801 0 0 1 0.2228,0 11.682801,11.682801 0 0 1 11.68304,11.678865 11.682801,11.682801 0 0 1 -11.68304,11.68302 11.682801,11.682801 0 0 1 -11.68306,-11.68302 11.682801,11.682801 0 0 1 11.46031,-11.678865 z" />
    <g
       id="g5414"
       transform="matrix(8.0885754,0.84319623,-0.84319623,8.0885754,-71.228767,-619.99478)"
       inkscape:transform-center-x="-1.0393736"
       inkscape:transform-center-y="-10.559752">
      <path
         id="path5337"
         style="fill:#676767;fill-opacity:1;stroke:none;stroke-width:0.450867;stroke-miterlimit:4;stroke-dasharray:none;stroke-opacity:1"
         d="m 115.70898,343.03711 a 11.049763,11.049763 0 0 0 -11.02343,11.05078 11.049763,11.049763 0 0 0 11.04883,11.04883 11.049763,11.049763 0 0 0 11.05078,-11.04883 11.049763,11.049763 0 0 0 -11.05078,-11.05078 11.049763,11.049763 0 0 0 -0.0254,0 z m 0.0254,3.66211 a 7.3879597,7.3879597 0 0 1 7.38867,7.38867 7.3879597,7.3879597 0 0 1 -7.38867,7.38867 7.3879597,7.3879597 0 0 1 -7.38672,-7.38867 7.3879597,7.3879597 0 0 1 7.38672,-7.38867 z"
         transform="scale(0.26458333)" />
      <rect
         style="fill:#676767;fill-opacity:1;stroke:none;stroke-width:0.187;stroke-miterlimit:4;stroke-dasharray:none;stroke-opacity:1"
         id="rect5390"
         width="1.6036172"
         height="1.3029389"
         x="73.660866"
         y="67.861511"
         ry="0"
         transform="rotate(28.023656)"
         inkscape:transform-center-x="0.16704346"
         inkscape:transform-center-y="0.16704346" />
      <rect
         style="fill:#676767;fill-opacity:1;stroke:none;stroke-width:0.187;stroke-miterlimit:4;stroke-dasharray:none;stroke-opacity:1"
         id="rect5394"
         width="5.278573"
         height="2.5390604"
         x="75.338318"
         y="66.551651"
         ry="0.92080176"
         transform="rotate(28.573866)"
         inkscape:transform-center-x="-0.2451438"
         inkscape:transform-center-y="-0.59684456" />
    </g>
    <path
       id="circle5226-5-1"
       style="fill:#fa7d09;fill-opacity:1;stroke:none;stroke-width:0.823138;stroke-miterlimit:4;stroke-dasharray:none;stroke-opacity:1"
       d="m 129.27564,74.344375 a 16.764678,16.764678 0 0 0 -3.68502,0.41906 l -0.95269,4.08734 a 13.120183,13.120183 0 0 0 -3.23801,1.79081 l -3.96718,-1.36336 a 16.764678,16.764678 0 0 0 -2.31047,2.90556 l 2.21547,3.56208 a 13.120183,13.120183 0 0 0 -1.00018,3.41401 13.120183,13.120183 0 0 0 -0.0227,0.14257 l -3.76884,1.84112 a 16.764678,16.764678 0 0 0 0.41906,3.68781 l 4.08734,0.9499 a 13.120183,13.120183 0 0 0 1.79084,3.23801 l -1.3606,3.969995 a 16.764678,16.764678 0 0 0 2.90276,2.31046 l 3.56211,-2.21549 a 13.120183,13.120183 0 0 0 3.41399,1.00018 13.120183,13.120183 0 0 0 0.14257,0.0204 l 1.84112,3.76884 a 16.764678,16.764678 0 0 0 3.68781,-0.4163 l 0.95269,-4.08731 a 13.120183,13.120183 0 0 0 3.23522,-1.79362 l 3.96997,1.36338 a 16.764678,16.764678 0 0 0 2.31049,-2.90555 l -2.21545,-3.560195 a 13.120183,13.120183 0 0 0 1.00017,-3.4168 13.120183,13.120183 0 0 0 0.0204,-0.13962 l 3.76884,-1.84392 a 16.764678,16.764678 0 0 0 -0.41624,-3.68763 l -4.08731,-0.94989 a 13.120183,13.120183 0 0 0 -1.79362,-3.23801 l 1.36338,-3.96719 a 16.764678,16.764678 0 0 0 -2.90306,-2.31339 l -3.56208,2.21829 a 13.120183,13.120183 0 0 0 -3.41684,-1.00019 13.120183,13.120183 0 0 0 -0.13962,-0.0227 z m -0.11174,8.99882 a 7.76659,7.76659 0 0 1 0.148,0 7.76659,7.76659 0 0 1 7.76674,7.76397 7.76659,7.76659 0 0 1 -7.76674,7.76677 7.76659,7.76659 0 0 1 -7.76676,-7.76677 7.76659,7.76659 0 0 1 7.61869,-7.76397 z" />
    <path
       id="circle5226-5-1-6"
       style="fill:#fa7d09;fill-opacity:1;stroke:none;stroke-width:0.587309;stroke-miterlimit:4;stroke-dasharray:none;stroke-opacity:1"
       d="m 153.40768,60.421285 a 11.96163,11.96163 0 0 0 -2.62925,0.29903 l -0.67972,2.9163 a 9.3612747,9.3612747 0 0 0 -2.31033,1.27777 l -2.83065,-0.97281 a 11.96163,11.96163 0 0 0 -1.64851,2.07312 l 1.58074,2.54156 a 9.3612747,9.3612747 0 0 0 -0.7136,2.43592 9.3612747,9.3612747 0 0 0 -0.0159,0.10154 l -2.68907,1.31363 a 11.96163,11.96163 0 0 0 0.29903,2.63128 l 2.91632,0.67775 a 9.3612747,9.3612747 0 0 0 1.27775,2.31033 l -0.97079,2.83259 a 11.96163,11.96163 0 0 0 2.07114,1.64851 l 2.54156,-1.58074 a 9.3612747,9.3612747 0 0 0 2.4359,0.7136 9.3612747,9.3612747 0 0 0 0.10177,0.0136 l 1.31363,2.68907 a 11.96163,11.96163 0 0 0 2.63127,-0.29708 l 0.6797,-2.91629 a 9.3612747,9.3612747 0 0 0 2.30834,-1.27975 l 2.83259,0.97277 a 11.96163,11.96163 0 0 0 1.64854,-2.07312 l -1.58075,-2.53952 a 9.3612747,9.3612747 0 0 0 0.7136,-2.43789 9.3612747,9.3612747 0 0 0 0.0136,-0.0997 l 2.68903,-1.31565 a 11.96163,11.96163 0 0 0 -0.29703,-2.63112 l -2.91632,-0.67777 a 9.3612747,9.3612747 0 0 0 -1.27977,-2.31033 l 0.97279,-2.83059 a 11.96163,11.96163 0 0 0 -2.07137,-1.6506 l -2.54154,1.58276 a 9.3612747,9.3612747 0 0 0 -2.43792,-0.71363 9.3612747,9.3612747 0 0 0 -0.0995,-0.0159 z m -0.0798,6.42068 a 5.5414767,5.5414767 0 0 1 0.10562,0 5.5414767,5.5414767 0 0 1 5.54159,5.53959 5.5414767,5.5414767 0 0 1 -5.54159,5.54159 5.5414767,5.5414767 0 0 1 -5.54158,-5.54159 5.5414767,5.5414767 0 0 1 5.43591,-5.53959 z" />
    <path
       id="circle5226-5-3"
       style="fill:#676767;fill-opacity:1;stroke:none;stroke-width:0.483546;stroke-miterlimit:4;stroke-dasharray:none;stroke-opacity:1"
       d="m 130.67549,55.407155 a 9.8483164,9.8483164 0 0 0 -2.16473,0.24617 l -0.55968,2.40108 a 7.7073775,7.7073775 0 0 0 -1.90214,1.05201 l -2.33051,-0.80087 a 9.8483164,9.8483164 0 0 0 -1.35728,1.70683 l 1.30148,2.09254 a 7.7073775,7.7073775 0 0 0 -0.58756,2.00555 7.7073775,7.7073775 0 0 0 -0.0136,0.0836 l -2.21398,1.08156 a 9.8483164,9.8483164 0 0 0 0.24615,2.16638 l 2.40108,0.55803 a 7.7073775,7.7073775 0 0 0 1.05201,1.90216 l -0.79924,2.33214 a 9.8483164,9.8483164 0 0 0 1.7052,1.35728 l 2.09268,-1.30155 a 7.7073775,7.7073775 0 0 0 2.00552,0.58756 7.7073775,7.7073775 0 0 0 0.0836,0.0113 l 1.08155,2.214 a 9.8483164,9.8483164 0 0 0 2.16641,-0.24456 l 0.55959,-2.40106 a 7.7073775,7.7073775 0 0 0 1.90051,-1.05366 l 2.33214,0.80089 a 9.8483164,9.8483164 0 0 0 1.35728,-1.70686 l -1.30148,-2.09088 a 7.7073775,7.7073775 0 0 0 0.58756,-2.0072 7.7073775,7.7073775 0 0 0 0.0113,-0.082 l 2.214,-1.08319 a 9.8483164,9.8483164 0 0 0 -0.24381,-2.16629 l -2.40106,-0.55803 a 7.7073775,7.7073775 0 0 0 -1.05368,-1.90214 l 0.80089,-2.33053 a 9.8483164,9.8483164 0 0 0 -1.70525,-1.35885 l -2.09254,1.3031 a 7.7073775,7.7073775 0 0 0 -2.0072,-0.58756 7.7073775,7.7073775 0 0 0 -0.082,-0.0136 z m -0.066,5.28633 a 4.5624398,4.5624398 0 0 1 0.087,0 4.5624398,4.5624398 0 0 1 4.56254,4.56089 4.5624398,4.5624398 0 0 1 -4.56254,4.56252 4.5624398,4.5624398 0 0 1 -4.56252,-4.56252 4.5624398,4.5624398 0 0 1 4.47553,-4.56089 z" />
  </g>
</svg>
