<?xml version="1.0" encoding="UTF-8" standalone="no"?>
<svg
   xmlns:dc="http://purl.org/dc/elements/1.1/"
   xmlns:cc="http://creativecommons.org/ns#"
   xmlns:rdf="http://www.w3.org/1999/02/22-rdf-syntax-ns#"
   xmlns:svg="http://www.w3.org/2000/svg"
   xmlns="http://www.w3.org/2000/svg"
   xmlns:sodipodi="http://sodipodi.sourceforge.net/DTD/sodipodi-0.dtd"
   xmlns:inkscape="http://www.inkscape.org/namespaces/inkscape"
   width="210mm"
   height="297mm"
   viewBox="0 0 210 297"
   version="1.1"
   id="svg8"
   inkscape:version="1.0.1 (3bc2e813f5, 2020-09-07)"
   sodipodi:docname="logo.svg">
  <defs
     id="defs2" />
  <sodipodi:namedview
     id="base"
     pagecolor="#ffffff"
     bordercolor="#666666"
     borderopacity="1.0"
     inkscape:pageopacity="0.0"
     inkscape:pageshadow="2"
     inkscape:zoom="5.6"
     inkscape:cx="112.23445"
     inkscape:cy="345.5503"
     inkscape:document-units="mm"
     inkscape:current-layer="layer1"
     inkscape:document-rotation="0"
     showgrid="false"
     inkscape:snap-object-midpoints="true"
     inkscape:window-width="1366"
     inkscape:window-height="745"
     inkscape:window-x="-8"
     inkscape:window-y="-8"
     inkscape:window-maximized="1" />
  <metadata
     id="metadata5">
    <rdf:RDF>
      <cc:Work
         rdf:about="">
        <dc:format>image/svg+xml</dc:format>
        <dc:type
           rdf:resource="http://purl.org/dc/dcmitype/StillImage" />
        <dc:title></dc:title>
      </cc:Work>
    </rdf:RDF>
  </metadata>
  <g
     inkscape:label="Capa 1"
     inkscape:groupmode="layer"
     id="layer1">
    <path
       id="circle5226"
       style="fill:#fa7d09;fill-opacity:1;stroke:none;stroke-width:1.42594;stroke-miterlimit:4;stroke-dasharray:none;stroke-opacity:1"
       d="m 115.72461,325.01562 a 29.041886,29.041886 0 0 0 -6.38477,0.72657 l -1.64843,7.08008 a 22.728431,22.728431 0 0 0 -5.60938,3.10351 l -6.873046,-2.36133 a 29.041886,29.041886 0 0 0 -4.003906,5.03321 l 3.841797,6.16992 a 22.728431,22.728431 0 0 0 -1.736328,5.91406 22.728431,22.728431 0 0 0 -0.03516,0.24609 l -6.529297,3.19141 a 29.041886,29.041886 0 0 0 0.726562,6.38672 l 7.078125,1.64844 a 22.728431,22.728431 0 0 0 3.105469,5.60742 l -2.361328,6.875 a 29.041886,29.041886 0 0 0 5.031252,4.0039 l 7.03125,-8.75781 a 17.930206,17.930206 0 0 1 -9.300783,-18.48828 17.930206,17.930206 0 0 1 20.359383,-15.07226 17.930206,17.930206 0 0 1 0.0352,0.006 17.930206,17.930206 0 0 1 10.9668,6.08204 l 6.63086,-8.25782 0.23047,-0.67187 a 29.041886,29.041886 0 0 0 -5.0293,-4.00586 l -6.16992,3.8418 a 22.728431,22.728431 0 0 0 -5.91602,-1.73438 22.728431,22.728431 0 0 0 -0.24414,-0.0351 z m 0.0332,11.36329 a 17.677671,17.677671 0 0 0 -17.453122,15.05273 17.677671,17.677671 0 0 0 9.214842,18.25195 l 3.08008,-3.83789 a 12.879446,12.879446 0 0 1 -7.54883,-13.70117 12.879446,12.879446 0 0 1 14.63867,-10.82422 12.879446,12.879446 0 0 1 0.0117,0.002 12.879446,12.879446 0 0 1 8.47656,5.125 l 3.08008,-3.83594 a 17.677671,17.677671 0 0 0 -10.8457,-6.03516 17.677671,17.677671 0 0 0 -0.18555,-0.0273 17.677671,17.677671 0 0 0 -2.46875,-0.16992 z"
       transform="scale(0.26458333)" />
    <g
       id="g5140"
       transform="rotate(-15,24.27042,98.876019)" />
    <path
       id="circle5226-5"
       style="fill:#2f2519;fill-opacity:1;stroke:none;stroke-width:0.152254;stroke-miterlimit:4;stroke-dasharray:none;stroke-opacity:1"
       d="m 38.974242,83.817248 a 3.1009357,3.1009357 0 0 0 -0.681611,0.07751 l -0.176215,0.756025 a 2.4268191,2.4268191 0 0 0 -0.598932,0.331246 l -0.733804,-0.25218 a 3.1009357,3.1009357 0 0 0 -0.427365,0.537435 l 0.409794,0.658873 a 2.4268191,2.4268191 0 0 0 -0.185002,0.631486 2.4268191,2.4268191 0 0 0 -0.0041,0.02635 l -0.697116,0.340548 a 3.1009357,3.1009357 0 0 0 0.07751,0.682127 l 0.756025,0.175702 a 2.4268191,2.4268191 0 0 0 0.331248,0.59893 l -0.251666,0.734321 a 3.1009357,3.1009357 0 0 0 0.536919,0.427363 l 0.658876,-0.409794 a 2.4268191,2.4268191 0 0 0 0.631483,0.185002 2.4268191,2.4268191 0 0 0 0.02635,0.0036 l 0.340548,0.697116 a 3.1009357,3.1009357 0 0 0 0.68213,-0.077 l 0.176215,-0.756026 a 2.4268191,2.4268191 0 0 0 0.598413,-0.331761 l 0.734322,0.25218 a 3.1009357,3.1009357 0 0 0 0.427366,-0.537435 l -0.409795,-0.658358 a 2.4268191,2.4268191 0 0 0 0.185002,-0.632002 2.4268191,2.4268191 0 0 0 0.0036,-0.02585 l 0.697114,-0.341063 a 3.1009357,3.1009357 0 0 0 -0.07699,-0.682097 l -0.756025,-0.175699 a 2.4268191,2.4268191 0 0 0 -0.331764,-0.598929 l 0.252182,-0.733806 a 3.1009357,3.1009357 0 0 0 -0.536919,-0.427879 l -0.658873,0.41031 a 2.4268191,2.4268191 0 0 0 -0.632005,-0.185002 2.4268191,2.4268191 0 0 0 -0.02582,-0.0041 z m -0.02066,1.664496 a 1.4365737,1.4365737 0 0 1 0.02739,0 1.4365737,1.4365737 0 0 1 1.436603,1.43609 1.4365737,1.4365737 0 0 1 -1.436603,1.436602 1.4365737,1.4365737 0 0 1 -1.436605,-1.436602 1.4365737,1.4365737 0 0 1 1.409215,-1.43609 z" />
    <g
       id="g5414"
       transform="rotate(5.9513219,30.884459,93.717469)"
       inkscape:transform-center-x="-0.12780646"
       inkscape:transform-center-y="-1.2984793">
      <path
         id="path5337"
         style="fill:#2f2519;fill-opacity:1;stroke:none;stroke-width:0.450867;stroke-miterlimit:4;stroke-dasharray:none;stroke-opacity:1"
         d="m 115.70898,343.03711 a 11.049763,11.049763 0 0 0 -11.02343,11.05078 11.049763,11.049763 0 0 0 11.04883,11.04883 11.049763,11.049763 0 0 0 11.05078,-11.04883 11.049763,11.049763 0 0 0 -11.05078,-11.05078 11.049763,11.049763 0 0 0 -0.0254,0 z m 0.0254,3.66211 a 7.3879597,7.3879597 0 0 1 7.38867,7.38867 7.3879597,7.3879597 0 0 1 -7.38867,7.38867 7.3879597,7.3879597 0 0 1 -7.38672,-7.38867 7.3879597,7.3879597 0 0 1 7.38672,-7.38867 z"
         transform="scale(0.26458333)" />
      <rect
         style="fill:#2f2519;fill-opacity:1;stroke:none;stroke-width:0.187;stroke-miterlimit:4;stroke-dasharray:none;stroke-opacity:1"
         id="rect5390"
         width="1.6036172"
         height="1.3029389"
         x="73.660866"
         y="67.861511"
         ry="0"
         transform="rotate(28.023656)"
         inkscape:transform-center-x="0.16704346"
         inkscape:transform-center-y="0.16704346" />
      <rect
         style="fill:#2f2519;fill-opacity:1;stroke:none;stroke-width:0.187;stroke-miterlimit:4;stroke-dasharray:none;stroke-opacity:1"
         id="rect5394"
         width="5.278573"
         height="2.5390604"
         x="75.338318"
         y="66.551651"
         ry="0.92080176"
         transform="rotate(28.573866)"
         inkscape:transform-center-x="-0.2451438"
         inkscape:transform-center-y="-0.59684456" />
    </g>
    <path
       id="circle5226-5-1"
       style="fill:#fa7d09;fill-opacity:1;stroke:none;stroke-width:0.101217;stroke-miterlimit:4;stroke-dasharray:none;stroke-opacity:1"
       d="m 34.538401,82.682199 a 2.0614659,2.0614659 0 0 0 -0.453127,0.05153 l -0.117146,0.502597 a 1.6133211,1.6133211 0 0 0 -0.398163,0.220208 l -0.487824,-0.167646 a 2.0614659,2.0614659 0 0 0 -0.284107,0.35728 l 0.272426,0.438011 a 1.6133211,1.6133211 0 0 0 -0.122987,0.419805 1.6133211,1.6133211 0 0 0 -0.0027,0.01752 l -0.463434,0.226393 a 2.0614659,2.0614659 0 0 0 0.05153,0.45347 l 0.502597,0.116804 a 1.6133211,1.6133211 0 0 0 0.22021,0.398162 l -0.167305,0.488168 a 2.0614659,2.0614659 0 0 0 0.356938,0.284106 l 0.438013,-0.272426 a 1.6133211,1.6133211 0 0 0 0.419802,0.122987 1.6133211,1.6133211 0 0 0 0.01752,0.0024 l 0.226393,0.463435 a 2.0614659,2.0614659 0 0 0 0.453472,-0.05119 l 0.117145,-0.502597 a 1.6133211,1.6133211 0 0 0 0.397818,-0.220551 l 0.488169,0.167646 a 2.0614659,2.0614659 0 0 0 0.284108,-0.35728 l -0.272427,-0.437669 a 1.6133211,1.6133211 0 0 0 0.122987,-0.420148 1.6133211,1.6133211 0 0 0 0.0024,-0.01718 l 0.463433,-0.226735 a 2.0614659,2.0614659 0 0 0 -0.05118,-0.45345 l -0.502596,-0.116803 a 1.6133211,1.6133211 0 0 0 -0.220553,-0.398161 l 0.167648,-0.487826 a 2.0614659,2.0614659 0 0 0 -0.356978,-0.284464 l -0.438011,0.27277 a 1.6133211,1.6133211 0 0 0 -0.42015,-0.122987 1.6133211,1.6133211 0 0 0 -0.01716,-0.0027 z m -0.01374,1.106538 a 0.95501745,0.95501745 0 0 1 0.01821,0 0.95501745,0.95501745 0 0 1 0.955037,0.954696 0.95501745,0.95501745 0 0 1 -0.955037,0.955036 0.95501745,0.95501745 0 0 1 -0.955038,-0.955036 0.95501745,0.95501745 0 0 1 0.936829,-0.954696 z" />
    <path
       id="circle5226-5-1-6"
       style="fill:#fa7d09;fill-opacity:1;stroke:none;stroke-width:0.0722185;stroke-miterlimit:4;stroke-dasharray:none;stroke-opacity:1"
       d="m 37.505794,80.970147 a 1.4708598,1.4708598 0 0 0 -0.323307,0.03677 l -0.08358,0.358604 a 1.1511076,1.1511076 0 0 0 -0.28409,0.157119 l -0.348068,-0.11962 a 1.4708598,1.4708598 0 0 0 -0.202711,0.25492 l 0.194377,0.312522 a 1.1511076,1.1511076 0 0 0 -0.08775,0.299532 1.1511076,1.1511076 0 0 0 -0.0019,0.0125 l -0.330661,0.161532 a 1.4708598,1.4708598 0 0 0 0.03677,0.323552 l 0.358604,0.08334 a 1.1511076,1.1511076 0 0 0 0.15712,0.284089 l -0.119373,0.348309 a 1.4708598,1.4708598 0 0 0 0.254676,0.20271 l 0.312524,-0.194377 a 1.1511076,1.1511076 0 0 0 0.299529,0.08775 1.1511076,1.1511076 0 0 0 0.0125,0.0017 l 0.161531,0.330662 a 1.4708598,1.4708598 0 0 0 0.323554,-0.03653 l 0.08358,-0.358604 a 1.1511076,1.1511076 0 0 0 0.283844,-0.157364 l 0.348309,0.119616 a 1.4708598,1.4708598 0 0 0 0.202712,-0.25492 l -0.194377,-0.31227 a 1.1511076,1.1511076 0 0 0 0.08775,-0.299777 1.1511076,1.1511076 0 0 0 0.0017,-0.01226 l 0.330654,-0.161776 a 1.4708598,1.4708598 0 0 0 -0.03652,-0.323537 l -0.358604,-0.08334 A 1.1511076,1.1511076 0 0 0 38.427222,81.74691 L 38.54684,81.398845 A 1.4708598,1.4708598 0 0 0 38.292135,81.19588 l -0.312522,0.194622 a 1.1511076,1.1511076 0 0 0 -0.299777,-0.08775 1.1511076,1.1511076 0 0 0 -0.01224,-0.0019 z m -0.0098,0.789517 a 0.68140675,0.68140675 0 0 1 0.01299,0 0.68140675,0.68140675 0 0 1 0.681421,0.681177 0.68140675,0.68140675 0 0 1 -0.681421,0.68142 0.68140675,0.68140675 0 0 1 -0.681421,-0.68142 0.68140675,0.68140675 0 0 1 0.668428,-0.681177 z" />
    <path
       id="circle5226-5-3"
       style="fill:#2f2519;fill-opacity:1;stroke:none;stroke-width:0.0594592;stroke-miterlimit:4;stroke-dasharray:none;stroke-opacity:1"
       d="m 34.710535,80.353587 a 1.2109966,1.2109966 0 0 0 -0.266187,0.03027 l -0.06882,0.295247 a 0.94773641,0.94773641 0 0 0 -0.233898,0.129361 l -0.28657,-0.09848 a 1.2109966,1.2109966 0 0 0 -0.166897,0.209883 l 0.160036,0.257306 a 0.94773641,0.94773641 0 0 0 -0.07225,0.246613 0.94773641,0.94773641 0 0 0 -0.0016,0.01029 l -0.272242,0.132993 a 1.2109966,1.2109966 0 0 0 0.03027,0.266388 l 0.295247,0.06862 a 0.94773641,0.94773641 0 0 0 0.129361,0.233898 l -0.09828,0.286772 a 1.2109966,1.2109966 0 0 0 0.209681,0.166896 L 34.32571,82.4296 a 0.94773641,0.94773641 0 0 0 0.246611,0.07225 0.94773641,0.94773641 0 0 0 0.01029,0.0014 l 0.132993,0.272242 a 1.2109966,1.2109966 0 0 0 0.26639,-0.03007 l 0.06881,-0.295247 A 0.94773641,0.94773641 0 0 0 35.2845,82.320613 l 0.286772,0.09848 a 1.2109966,1.2109966 0 0 0 0.166897,-0.209882 l -0.160035,-0.257106 a 0.94773641,0.94773641 0 0 0 0.07225,-0.246814 0.94773641,0.94773641 0 0 0 0.0014,-0.01009 l 0.272242,-0.133194 A 1.2109966,1.2109966 0 0 0 35.893956,81.29563 L 35.59871,81.22701 a 0.94773641,0.94773641 0 0 0 -0.129563,-0.233897 l 0.09848,-0.286571 a 1.2109966,1.2109966 0 0 0 -0.209681,-0.167098 l -0.257307,0.160236 a 0.94773641,0.94773641 0 0 0 -0.246815,-0.07225 0.94773641,0.94773641 0 0 0 -0.01009,-0.0016 z m -0.0081,0.65003 a 0.56101964,0.56101964 0 0 1 0.0107,0 0.56101964,0.56101964 0 0 1 0.561031,0.56083 0.56101964,0.56101964 0 0 1 -0.561031,0.561031 0.56101964,0.56101964 0 0 1 -0.561032,-0.561031 0.56101964,0.56101964 0 0 1 0.550335,-0.56083 z" />
  </g>
</svg>
